<svg aria-hidden="true" style="position: absolute; width: 0; height: 0; overflow: hidden;" version="1.1" xmlns="http://www.w3.org/2000/svg" xmlns:xlink="http://www.w3.org/1999/xlink">
<defs>
<symbol id="icon-email" viewBox="0 0 32 32">
<path d="M27.147 24.914c-0.833 0.731-1.765 1.387-2.763 1.938l-0.081 0.041c-0.943 0.521-2.036 0.965-3.185 1.275l-0.104 0.024c-1.15 0.305-2.361 0.469-3.61 0.469-1.892 0-3.734-0.293-5.465-0.866-1.694-0.562-3.203-1.417-4.464-2.529-1.261-1.089-2.584-2.915-3.363-4.636-0.68-1.499-0.965-3.114-0.965-5.607 0-1.768 0.433-3.723 1.175-5.385 0.739-1.628 1.738-3.011 2.961-4.161l0.007-0.006c1.237-1.159 2.744-2.107 4.488-2.809 1.558-0.62 3.401-0.925 5.638-0.925 1.768 0 3.462 0.27 5.008 0.796 1.508 0.515 2.831 1.253 3.932 2.201 1.013 0.878 1.644 1.943 2.312 3.383 0.581 1.229 0.804 2.318 0.804 4.015 0 1.381-0.26 2.704-0.767 3.91-0.507 1.182-0.889 1.908-1.656 2.809-0.804 0.913-1.249 1.416-2.102 1.884-0.989 0.55-1.743 0.808-2.349 0.808-0.482 0-0.631-0.106-0.643-0.117-0.074-0.059-0.136-0.141-0.174-0.34-0.037-0.27 0-0.632 0.112-1.042 0.124-0.469 0.309-0.913 0.581-1.534l4.946-12.572h-3.252l-0.568 1.429c-0.445-0.492-0.977-0.913-1.571-1.241-1.409-0.773-2.596-1.089-4.105-1.089-1.756 0-3.4 0.433-4.859 1.288-1.432 0.84-2.635 1.907-3.601 3.166l-0.022 0.029c-0.964 1.264-1.211 1.943-1.656 3.196l-0.074 0.21c-0.532 1.499-0.803 2.974-0.803 4.39 0 0.948 0.185 1.873 0.544 2.728 0.358 0.866 0.853 1.615 1.471 2.224 0.606 0.632 1.36 1.136 2.251 1.522 0.865 0.375 1.817 0.574 2.843 0.574 1.138 0 2.177-0.176 3.388-0.574 0.702-0.234 1.31-0.572 1.84-1.003l-0.011 0.008c0.124 0.199 0.285 0.374 0.47 0.539 0.717 0.678 1.669 1.030 2.807 1.030s2.361-0.363 3.832-1.147c1.311-0.702 2.077-1.51 3.017-2.575 1.063-1.206 1.595-2.236 2.164-3.606 0.643-1.51 0.964-3.16 0.964-4.893 0-2.178-0.309-3.664-1.1-5.303-0.841-1.733-1.694-3.126-3.091-4.296-1.384-1.171-3.042-2.072-4.92-2.704-1.855-0.62-3.845-0.925-5.935-0.925-2.547 0-4.723 0.363-6.64 1.1-2.077 0.796-3.919 1.92-5.477 3.325-1.525 1.4-2.769 3.079-3.656 4.959l-0.041 0.097c-0.927 1.991-1.446 4.402-1.446 6.638 0 3.009 0.396 5.116 1.323 7.036 1.026 2.107 2.696 4.272 4.241 5.537 1.553 1.286 3.393 2.289 5.403 2.898l0.111 0.029c1.849 0.582 3.975 0.92 6.18 0.925h0.002c1.422 0 2.881-0.187 4.34-0.55 1.471-0.387 2.844-0.913 4.080-1.58 1.363-0.729 2.539-1.553 3.605-2.499l-0.019 0.017c1.113-0.983 2.374-2.517 2.819-3.266 0.235-0.41 0.383-0.714 0.457-0.901h-3.412c-0.656 0.761-1.36 1.522-2.164 2.236zM18.468 19.354c-0.556 0.667-0.915 1.066-1.348 1.334-0.482 0.317-0.866 0.515-1.36 0.621h-0.012c-0.495 0.117-1.026 0.187-1.57 0.187-0.631 0-1.2-0.105-1.706-0.316-0.521-0.208-0.965-0.505-1.335-0.877l-0-0c-0.372-0.374-0.676-0.817-0.892-1.306l-0.011-0.028c-0.204-0.494-0.322-1.067-0.322-1.667 0-0.011 0-0.021 0-0.032v0.002c0-1.054 0.21-2.201 0.631-3.395 0.049-0.14 0.099-0.292 0.136-0.398 0.334-0.971 0.507-1.276 1.125-2.248 0.569-0.889 1.459-1.709 2.696-2.493 0.976-0.62 2.064-0.937 3.252-0.937 0.482 0 0.989 0.059 1.521 0.164 0.383 0.081 0.581 0.187 0.964 0.398l0.025 0.012c0.049 0.023 0.099 0.047 0.161 0.081l0.037 0.024c0.446 0.245 0.826 0.549 1.146 0.909l0.004 0.004c0.26 0.293 0.47 0.667 0.631 1.135l-2.486 6.614c-0.383 0.89-0.816 1.639-1.285 2.213z"></path>
</symbol>
<symbol id="icon-facebook" viewBox="0 0 32 32">
<path d="M16 0c-8.837 0-16 7.163-16 16s7.163 16 16 16c8.837 0 16-7.163 16-16s-7.163-16-16-16zM17.668 16.703v8.705h-3.602v-8.703h-1.799v-3h1.799v-1.801c0-2.447 1.016-3.902 3.903-3.902h2.403v3h-1.503c-1.124 0-1.198 0.419-1.198 1.202l-0.004 1.501h2.722l-0.318 3h-2.403z"></path>
</symbol>
<symbol id="icon-google" viewBox="0 0 32 32">
<path d="M0 16c0-8.837 7.163-16 16-16s16 7.163 16 16c0 8.837-7.163 16-16 16s-16-7.163-16-16zM13.072 15.543v1.737h2.883c-0.116 0.746-0.871 2.186-2.883 2.186-1.735 0-3.152-1.434-3.152-3.199s1.417-3.199 3.152-3.199c0.988 0 1.649 0.42 2.026 0.782l1.38-1.324c-0.886-0.826-2.034-1.325-3.406-1.325-2.811 0-5.084 2.266-5.084 5.067s2.273 5.067 5.084 5.067c2.934 0 4.88-2.055 4.88-4.951 0-0.333-0.036-0.587-0.080-0.839h-4.8zM22.513 15.543h1.452v1.447h-1.452v1.447h-1.453v-1.447h-1.452v-1.447h1.452v-1.447h1.453v1.447z"></path>
</symbol>
<symbol id="icon-instagram" viewBox="0 0 32 32">
<path d="M32.559 16.294c0 2.347 0.006 4.695 0 7.050-0.014 3.41-1.601 5.935-4.434 7.719-1.659 1.036-3.502 1.495-5.456 1.495-4.276 0-8.545 0.020-12.821-0.007-2.971-0.020-5.528-1.068-7.555-3.272-1.252-1.364-1.999-2.971-2.216-4.827-0.046-0.393-0.053-0.78-0.053-1.174 0-4.676-0.006-9.352 0-14.028 0.020-3.417 1.607-5.942 4.44-7.726 1.673-1.042 3.522-1.495 5.489-1.495 4.263 0 8.526-0.020 12.789 0.006 2.983 0.020 5.548 1.076 7.574 3.292 1.239 1.358 1.98 2.964 2.19 4.8 0.086 0.721 0.046 1.443 0.053 2.158 0.007 2.007 0 4.007 0 6.007zM2.457 16.294c0 2.407-0.007 4.807 0 7.214 0.006 1.653 0.61 3.076 1.737 4.256 1.515 1.581 3.404 2.348 5.574 2.361 4.309 0.026 8.611 0.006 12.919 0.006 1.391 0 2.715-0.302 3.922-0.997 2.256-1.292 3.528-3.194 3.528-5.857v-14.198c0-1.64-0.597-3.056-1.718-4.231-1.502-1.586-3.397-2.367-5.561-2.38-4.355-0.033-8.703-0.014-13.057-0.014-1.358 0-2.643 0.322-3.824 0.99-2.249 1.298-3.528 3.2-3.522 5.863v6.985z"></path>
<path d="M16.314 23.246c-4.236 0-7.633-3.384-7.627-7.608 0.007-4.112 3.45-7.483 7.653-7.476 4.224 0 7.634 3.39 7.627 7.575-0.006 4.145-3.436 7.509-7.653 7.509zM16.314 20.82c2.879 0 5.227-2.289 5.227-5.103 0-2.826-2.328-5.128-5.2-5.128-2.879 0-5.227 2.289-5.227 5.102 0 2.827 2.328 5.129 5.2 5.129zM23.246 7.545c0-0.931 0.714-1.679 1.607-1.679s1.607 0.754 1.607 1.679c0 0.912-0.715 1.66-1.593 1.666-0.892 0.007-1.62-0.735-1.62-1.666z"></path>
</symbol>
<symbol id="icon-phone" viewBox="0 0 32 32">
<path d="M32 25.273c0 0.409-0.076 0.943-0.227 1.603s-0.31 1.178-0.477 1.557c-0.318 0.757-1.243 1.561-2.773 2.409-1.424 0.773-2.833 1.159-4.227 1.159-0.409 0-0.807-0.027-1.193-0.080s-0.822-0.147-1.307-0.284c-0.495-0.133-0.855-0.246-1.21-0.369l0.13 0.039c-0.235-0.083-0.655-0.238-1.261-0.466-0.037-0.030-0.406-0.168-0.776-0.302l-0.337-0.107c-1.485-0.531-2.811-1.159-3.977-1.886-1.939-1.197-3.943-2.83-6.011-4.898s-3.701-4.071-4.898-6.011c-0.727-1.167-1.356-2.493-1.886-3.978-0.241-0.708-0.379-1.077-0.522-1.443l0.113 0.33c0.047 0.195-0.111-0.222-0.265-0.641l-0.2-0.62c-0.084-0.225-0.197-0.585-0.298-0.949l-0.031-0.13c-0.11-0.36-0.209-0.801-0.278-1.252l-0.007-0.054c-0.053-0.387-0.079-0.785-0.079-1.194 0-1.394 0.386-2.803 1.159-4.227 0.849-1.531 1.652-2.454 2.409-2.773 0.379-0.166 0.898-0.325 1.557-0.477 0.658-0.151 1.193-0.227 1.602-0.227 0.212 0 0.371 0.023 0.477 0.068 0.273 0.091 0.675 0.667 1.205 1.727 0.167 0.288 0.394 0.697 0.682 1.228s0.553 1.011 0.795 1.443c0.243 0.432 0.478 0.837 0.705 1.216 0.045 0.060 0.178 0.25 0.398 0.568s0.382 0.587 0.489 0.807c0.106 0.22 0.159 0.435 0.159 0.647 0 0.303-0.216 0.682-0.647 1.136s-0.901 0.871-1.409 1.251c-0.52 0.389-0.98 0.783-1.411 1.207l0.002-0.002c-0.432 0.424-0.648 0.773-0.648 1.045 0 0.137 0.038 0.307 0.114 0.511s0.14 0.36 0.193 0.466c0.053 0.106 0.159 0.288 0.318 0.545s0.246 0.402 0.261 0.432c1.152 2.076 2.469 3.856 3.955 5.341s3.265 2.803 5.341 3.955c0.030 0.015 0.174 0.102 0.432 0.261s0.439 0.265 0.545 0.318c0.107 0.053 0.261 0.117 0.466 0.193s0.375 0.114 0.511 0.114c0.273 0 0.621-0.216 1.045-0.648s0.826-0.901 1.205-1.409c0.39-0.521 0.8-0.981 1.245-1.405l0.005-0.004c0.455-0.432 0.834-0.647 1.137-0.647 0.212 0 0.428 0.053 0.648 0.159 0.219 0.106 0.489 0.269 0.806 0.489s0.508 0.352 0.569 0.398c0.379 0.227 0.784 0.462 1.216 0.705s0.913 0.508 1.443 0.796c0.531 0.288 0.94 0.515 1.227 0.682 1.061 0.53 1.637 0.932 1.728 1.205 0.045 0.106 0.068 0.265 0.068 0.477z"></path>
</symbol>
<symbol id="icon-twitter" viewBox="0 0 32 32">
<path d="M15.538 9.599l0.069 1.171-1.156-0.143c-4.208-0.549-7.885-2.413-11.006-5.542l-1.526-1.554-0.393 1.147c-0.832 2.556-0.3 5.256 1.434 7.071 0.925 1.003 0.717 1.147-0.878 0.549-0.555-0.191-1.041-0.334-1.087-0.263-0.162 0.167 0.393 2.341 0.832 3.201 0.602 1.195 1.827 2.365 3.168 3.058l1.133 0.549-1.341 0.024c-1.295 0-1.341 0.024-1.202 0.526 0.462 1.553 2.289 3.201 4.324 3.918l1.434 0.501-1.249 0.765c-1.85 1.099-4.023 1.719-6.197 1.767-1.040 0.024-1.896 0.119-1.896 0.191 0 0.239 2.821 1.577 4.462 2.102 4.925 1.553 10.775 0.884 15.168-1.768 3.122-1.887 6.243-5.637 7.7-9.268 0.786-1.935 1.572-5.471 1.572-7.167 0-1.099 0.069-1.243 1.364-2.556 0.763-0.764 1.48-1.6 1.619-1.839 0.231-0.453 0.208-0.453-0.971-0.048-1.966 0.717-2.243 0.621-1.272-0.453 0.717-0.764 1.572-2.15 1.572-2.556 0-0.071-0.347 0.048-0.74 0.263-0.416 0.239-1.341 0.597-2.035 0.812l-1.249 0.406-1.132-0.788c-0.624-0.43-1.503-0.908-1.966-1.051-1.179-0.335-2.982-0.287-4.046 0.095-2.89 1.075-4.717 3.845-4.509 6.88z"></path>
</symbol>
</defs>
</svg>
